Coordinates
version=1
nRows=8
nColumns=36
inDegrees=yes

Units are S.I. units (second, meters, Newtons, ...)
If the header above contains a line with 'inDegrees', this indicates whether rotational values are in degrees (yes) or radians (no).

endheader
time	pelvis_tilt	pelvis_list	pelvis_rotation	pelvis_tx	pelvis_ty	pelvis_tz	hip_flexion_r	hip_adduction_r	hip_rotation_r	knee_angle_r	knee_angle_r_beta	ankle_angle_r	subtalar_angle_r	mtp_angle_r	hip_flexion_l	hip_adduction_l	hip_rotation_l	knee_angle_l	knee_angle_l_beta	ankle_angle_l	subtalar_angle_l	mtp_angle_l	lumbar_extension	lumbar_bending	lumbar_rotation	arm_flex_r	arm_add_r	arm_rot_r	elbow_flex_r	pro_sup_r	arm_flex_l	arm_add_l	arm_rot_l	elbow_flex_l	pro_sup_l
      4.45000000	     -4.07860537	      0.43144972	     -1.29508709	      0.47574930	      0.98436171	     -0.02875010	      3.19355139	     -9.41522449	     -4.25956691	      0.46088389	      0.00804394	      1.19631687	     -7.60463169	     -7.49999987	      2.95856531	     -8.62030321	    -14.58092408	      1.21211264	      0.02115536	     -3.15488842	     -8.34638446	     -7.49999987	     -3.13180133	     -0.30696606	      0.41801699	      8.83472344	    -11.41370478	     13.57755510	     44.66247210	     73.82711582	      9.27213054	    -19.04418288	     29.06061742	     57.97662764	     71.14901657
      4.45416670	     -4.07293652	      0.41805197	     -1.29420516	      0.47648926	      0.98342985	     -0.02850999	      3.20004305	     -9.37841719	     -4.28208258	      0.45796194	      0.00799294	      1.23768416	     -7.63453311	     -7.49999987	      2.93149821	     -8.67318088	    -14.58734479	      1.17818945	      0.02056329	     -3.14022502	     -8.34424249	     -7.49999987	     -3.09916358	     -0.36790984	      0.40800271	      8.89302167	    -11.42537570	     13.55950337	     44.66674787	     73.82901517	      9.30125547	    -19.00781040	     29.05200716	     57.96983958	     71.15046055
      4.45833330	     -4.06223127	      0.38307765	     -1.29101891	      0.47751715	      0.98277548	     -0.02737654	      3.17679738	     -9.31422433	     -4.30053725	      0.45245386	      0.00789681	      1.30692175	     -7.68950271	     -7.49999987	      2.87713578	     -8.77614879	    -14.56974456	      1.11824934	      0.01951713	     -3.13412362	     -8.30553248	     -7.49999987	     -3.04384173	     -0.43620830	      0.43096372	      8.93540690	    -11.39612403	     13.54595386	     44.65255274	     73.83203314	      9.30744896	    -18.96154477	     29.03145512	     57.92174756	     71.15092420
      4.46250000	     -3.93928307	      0.31625967	     -1.29004849	      0.47787737	      0.98309300	     -0.02813196	      2.98951058	     -9.22359086	     -4.05318365	      0.44099834	      0.00769687	      1.15087418	     -8.20225157	     -7.49999987	      2.64744965	     -8.89408826	    -14.85950141	      1.02511693	      0.01789167	     -2.94841399	     -7.80582699	     -7.49999987	     -2.94745769	     -0.35196278	      0.53866621	      8.98216341	    -11.28545845	     13.27786354	     44.03607435	     73.29733801	      9.47792369	    -18.55172872	     28.80932477	     56.87495164	     70.77116051
      4.46666670	     -3.97244720	      0.28236147	     -1.27792246	      0.47873778	      0.98191783	     -0.02690820	      2.98038069	     -9.15475740	     -4.17303822	      0.45152669	      0.00788063	      1.23594626	     -8.08672924	     -7.49999987	      2.62056234	     -9.00248692	    -14.93901828	      1.00986853	      0.01762553	     -3.07257253	     -7.91280093	     -7.49999987	     -2.72970868	     -0.36139234	      0.58425295	      8.88370125	    -11.24916108	     13.11171652	     43.97573129	     72.71039942	      9.40938978	    -18.37668540	     28.61918875	     56.50008193	     70.30581260
      4.47083330	     -3.83022781	      0.19826792	     -1.25765096	      0.47944767	      0.98283798	     -0.02608457	      2.76886872	     -9.01043805	     -4.00187281	      0.44809308	      0.00782070	      1.30803368	     -8.20724916	     -7.49999987	      2.40755919	     -9.16512902	    -15.17390093	      1.00475050	      0.01753620	     -2.84492613	     -7.72926197	     -7.49999987	     -2.77162458	     -0.34432171	      0.66247722	      8.99482703	    -11.14829772	     13.07456399	     43.45274013	     71.83419032	      9.52120872	    -18.12617743	     28.57725182	     55.82658548	     69.65027692
      4.47500000	     -3.88307301	      0.19316743	     -1.27019015	      0.48004726	      0.98497161	     -0.02677143	      2.78343257	     -8.97916868	     -3.91110034	      0.44885580	      0.00783401	      1.28098168	     -8.33552693	     -7.49999987	      2.39551832	     -9.21423164	    -15.43027700	      0.96856898	      0.01690472	     -2.86421074	     -7.63995177	     -7.49999987	     -2.61712032	     -0.36891559	      0.73018738	      9.03689280	    -11.08555825	     13.03592792	     43.11476160	     71.59343682	      9.51069822	    -17.88480538	     28.47096237	     55.26114023	     69.47390435
      4.47916670	     -3.91457396	      0.17396474	     -1.26828502	      0.47911308	      0.98576954	     -0.02684006	      2.78970589	     -8.93588047	     -3.75725113	      0.44660397	      0.00779471	      1.14400203	     -8.59047872	     -7.49999987	      2.41105668	     -9.26267650	    -15.59805939	      0.97014046	      0.01693215	     -2.82362055	     -7.60576775	     -7.49999987	     -2.52046986	     -0.35229867	      0.67764433	      9.19513786	    -10.92543423	     12.65447117	     42.48066935	     74.62271700	      9.46748083	    -17.55924293	     27.91255176	     54.49111143	     72.38687977
